<svg width="24" height="23" viewBox="0 0 24 23" fill="none" xmlns="http://www.w3.org/2000/svg">
<path d="M23.5591 18.0165L18.0827 13.2447C17.8238 13.0192 17.4836 12.8989 17.134 12.9093C16.7843 12.9197 16.4526 13.0598 16.2087 13.3002L12.9848 16.4775C12.2088 16.3355 10.6488 15.8694 9.04288 14.3343C7.437 12.7941 6.95066 11.2952 6.8065 10.5567L10.1193 7.46586C10.3704 7.23234 10.5169 6.91434 10.5277 6.57916C10.5385 6.24398 10.4128 5.91792 10.1772 5.66998L5.19928 0.423073C4.96357 0.174357 4.63598 0.0234927 4.28607 0.00251989C3.93617 -0.018453 3.59151 0.0921183 3.3253 0.31075L0.40185 2.71343C0.168931 2.93745 0.0299102 3.2356 0.0111576 3.55133C-0.00905063 3.8741 -0.394354 11.5198 5.79205 17.451C11.189 22.6217 17.9493 23 19.8112 23C20.0833 23 20.2503 22.9923 20.2948 22.9897C20.6242 22.972 20.9352 22.8382 21.1678 22.614L23.6736 19.8111C23.9027 19.5568 24.0189 19.2267 23.9975 18.8914C23.9761 18.5561 23.8188 18.2421 23.5591 18.0165Z" fill="#D03838"/>
</svg>
